<?xml version="1.0" encoding="UTF-8" standalone="no"?>
<!DOCTYPE svg PUBLIC "-//W3C//DTD SVG 1.1//EN" "http://www.w3.org/Graphics/SVG/1.1/DTD/svg11.dtd">
<!-- Created with Vectornator (http://vectornator.io/) -->
<svg height="100%" stroke-miterlimit="10" style="fill-rule:nonzero;clip-rule:evenodd;stroke-linecap:round;stroke-linejoin:round;" version="1.1" viewBox="0 0 543 459" width="100%" xml:space="preserve" xmlns="http://www.w3.org/2000/svg" xmlns:xlink="http://www.w3.org/1999/xlink">
<defs>
<path d="M32.8653 231.511C32.8653 110.406 131.041 12.2301 252.146 12.2301C373.252 12.2301 471.428 110.406 471.428 231.511C471.428 352.617 373.252 450.792 252.146 450.792C131.041 450.792 32.8653 352.617 32.8653 231.511Z" id="Fill"/>
</defs>
<g id="NASA_logo">
<g opacity="1">
<use fill="#0b0b0b" fill-rule="nonzero" stroke="none" xlink:href="#Fill"/>
<mask height="438.562" id="StrokeMask" maskUnits="userSpaceOnUse" width="438.562" x="32.8653" y="12.2301">
<rect fill="#000000" height="438.562" stroke="none" width="438.562" x="32.8653" y="12.2301"/>
<use fill="#ffffff" fill-rule="evenodd" stroke="none" xlink:href="#Fill"/>
</mask>
<use fill="none" mask="url(#StrokeMask)" stroke="#ffffff" stroke-linecap="butt" stroke-linejoin="miter" stroke-width="10.2" xlink:href="#Fill"/>
</g>
<g opacity="1">
<path d="M236.741 54.3491C236.741 52.9914 237.842 51.8908 239.199 51.8908C240.557 51.8908 241.658 52.9914 241.658 54.3491C241.658 55.7068 240.557 56.8074 239.199 56.8074C237.842 56.8074 236.741 55.7068 236.741 54.3491Z" fill="#ffffff" fill-rule="nonzero" opacity="1" stroke="none"/>
<path d="M261.98 57.6269C261.98 56.2692 263.08 55.1686 264.438 55.1686C265.796 55.1686 266.896 56.2692 266.896 57.6269C266.896 58.9846 265.796 60.0852 264.438 60.0852C263.08 60.0852 261.98 58.9846 261.98 57.6269Z" fill="#ffffff" fill-rule="nonzero" opacity="1" stroke="none"/>
<path d="M295.085 102.204C295.085 100.847 296.185 99.7459 297.543 99.7459C298.901 99.7459 300.001 100.847 300.001 102.204C300.001 103.562 298.901 104.663 297.543 104.663C296.185 104.663 295.085 103.562 295.085 102.204Z" fill="#ffffff" fill-rule="nonzero" opacity="1" stroke="none"/>
<path d="M113.498 331.646C113.498 330.289 114.598 329.188 115.956 329.188C117.314 329.188 118.414 330.289 118.414 331.646C118.414 333.004 117.314 334.105 115.956 334.105C114.598 334.105 113.498 333.004 113.498 331.646Z" fill="#ffffff" fill-rule="nonzero" opacity="1" stroke="none"/>
<path d="M119.889 351.313C119.889 349.955 120.99 348.854 122.348 348.854C123.705 348.854 124.806 349.955 124.806 351.313C124.806 352.67 123.705 353.771 122.348 353.771C120.99 353.771 119.889 352.67 119.889 351.313Z" fill="#ffffff" fill-rule="nonzero" opacity="1" stroke="none"/>
<path d="M90.0237 334.596C90.0237 333.58 90.848 332.755 91.8647 332.755C92.8815 332.755 93.7057 333.58 93.7057 334.596C93.7057 335.613 92.8815 336.437 91.8647 336.437C90.848 336.437 90.0237 335.613 90.0237 334.596Z" fill="#ffffff" fill-rule="nonzero" opacity="1" stroke="none"/>
<path d="M189.989 373.23C189.989 372.21 190.816 371.383 191.836 371.383C192.856 371.383 193.682 372.21 193.682 373.23C193.682 374.25 192.856 375.076 191.836 375.076C190.816 375.076 189.989 374.25 189.989 373.23Z" fill="#ffffff" fill-rule="nonzero" opacity="1" stroke="none"/>
<path d="M346.791 340.66C346.791 339.643 347.616 338.819 348.632 338.819C349.649 338.819 350.473 339.643 350.473 340.66C350.473 341.677 349.649 342.501 348.632 342.501C347.616 342.501 346.791 341.677 346.791 340.66Z" fill="#ffffff" fill-rule="nonzero" opacity="1" stroke="none"/>
<path d="M392.352 291.166C392.352 290.146 393.179 289.32 394.198 289.32C395.218 289.32 396.045 290.146 396.045 291.166C396.045 292.186 395.218 293.013 394.198 293.013C393.179 293.013 392.352 292.186 392.352 291.166Z" fill="#ffffff" fill-rule="nonzero" opacity="1" stroke="none"/>
<path d="M169.017 116.583C169.017 115.566 169.842 114.742 170.858 114.742C171.875 114.742 172.699 115.566 172.699 116.583C172.699 117.599 171.875 118.424 170.858 118.424C169.842 118.424 169.017 117.599 169.017 116.583Z" fill="#ffffff" fill-rule="nonzero" opacity="1" stroke="none"/>
<path d="M219.167 79.7516C219.167 78.7349 219.991 77.9106 221.008 77.9106C222.025 77.9106 222.849 78.7349 222.849 79.7516C222.849 80.7684 222.025 81.5926 221.008 81.5926C219.991 81.5926 219.167 80.7684 219.167 79.7516Z" fill="#ffffff" fill-rule="nonzero" opacity="1" stroke="none"/>
<path d="M213.72 76.1461C213.72 75.1294 214.545 74.3051 215.561 74.3051C216.578 74.3051 217.402 75.1294 217.402 76.1461C217.402 77.1629 216.578 77.9871 215.561 77.9871C214.545 77.9871 213.72 77.1629 213.72 76.1461Z" fill="#ffffff" fill-rule="nonzero" opacity="1" stroke="none"/>
<path d="M208.804 72.5406C208.804 71.5238 209.628 70.6996 210.645 70.6996C211.661 70.6996 212.486 71.5238 212.486 72.5406C212.486 73.5574 211.661 74.3816 210.645 74.3816C209.628 74.3816 208.804 73.5574 208.804 72.5406Z" fill="#ffffff" fill-rule="nonzero" opacity="1" stroke="none"/>
<path d="M176.884 126.093C176.884 125.077 177.708 124.252 178.725 124.252C179.742 124.252 180.566 125.077 180.566 126.093C180.566 127.11 179.742 127.934 178.725 127.934C177.708 127.934 176.884 127.11 176.884 126.093Z" fill="#ffffff" fill-rule="nonzero" opacity="1" stroke="none"/>
<path d="M250.753 30.2577C250.753 29.2409 251.578 28.4167 252.594 28.4167C253.611 28.4167 254.435 29.2409 254.435 30.2577C254.435 31.2745 253.611 32.0987 252.594 32.0987C251.578 32.0987 250.753 31.2745 250.753 30.2577Z" fill="#ffffff" fill-rule="nonzero" opacity="1" stroke="none"/>
<path d="M262.887 83.3572C262.887 82.3404 263.711 81.5162 264.728 81.5162C265.744 81.5162 266.568 82.3404 266.568 83.3572C266.568 84.3739 265.744 85.1982 264.728 85.1982C263.711 85.1982 262.887 84.3739 262.887 83.3572Z" fill="#ffffff" fill-rule="nonzero" opacity="1" stroke="none"/>
<path d="M243.75 72.9886C243.75 71.9718 244.574 71.1476 245.591 71.1476C246.608 71.1476 247.432 71.9718 247.432 72.9886C247.432 74.0053 246.608 74.8296 245.591 74.8296C244.574 74.8296 243.75 74.0053 243.75 72.9886Z" fill="#ffffff" fill-rule="nonzero" opacity="1" stroke="none"/>
<path d="M210.972 87.0883C210.972 86.0716 211.797 85.2473 212.813 85.2473C213.83 85.2473 214.654 86.0716 214.654 87.0883C214.654 88.1051 213.83 88.9293 212.813 88.9293C211.797 88.9293 210.972 88.1051 210.972 87.0883Z" fill="#ffffff" fill-rule="nonzero" opacity="1" stroke="none"/>
<path d="M355.521 389.296C355.521 388.28 356.345 387.455 357.362 387.455C358.379 387.455 359.203 388.28 359.203 389.296C359.203 390.313 358.379 391.137 357.362 391.137C356.345 391.137 355.521 390.313 355.521 389.296Z" fill="#ffffff" fill-rule="nonzero" opacity="1" stroke="none"/>
<path d="M110.996 344.102C110.996 343.082 111.823 342.255 112.842 342.255C113.862 342.255 114.689 343.082 114.689 344.102C114.689 345.122 113.862 345.948 112.842 345.948C111.823 345.948 110.996 345.122 110.996 344.102Z" fill="#ffffff" fill-rule="nonzero" opacity="1" stroke="none"/>
<path d="M239.156 367.865C239.156 366.846 239.982 366.019 241.002 366.019C242.022 366.019 242.849 366.846 242.849 367.865C242.849 368.885 242.022 369.712 241.002 369.712C239.982 369.712 239.156 368.885 239.156 367.865Z" fill="#ffffff" fill-rule="nonzero" opacity="1" stroke="none"/>
<path d="M149.138 342.627C149.138 341.607 149.965 340.78 150.984 340.78C152.004 340.78 152.831 341.607 152.831 342.627C152.831 343.646 152.004 344.473 150.984 344.473C149.965 344.473 149.138 343.646 149.138 342.627Z" fill="#ffffff" fill-rule="nonzero" opacity="1" stroke="none"/>
<path d="M165.079 368.647C165.079 367.627 165.905 366.8 166.925 366.8C167.945 366.8 168.772 367.627 168.772 368.647C168.772 369.666 167.945 370.493 166.925 370.493C165.905 370.493 165.079 369.666 165.079 368.647Z" fill="#ffffff" fill-rule="nonzero" opacity="1" stroke="none"/>
<path d="M347.119 315.749C347.119 314.732 347.943 313.908 348.96 313.908C349.977 313.908 350.801 314.732 350.801 315.749C350.801 316.766 349.977 317.59 348.96 317.59C347.943 317.59 347.119 316.766 347.119 315.749Z" fill="#ffffff" fill-rule="nonzero" opacity="1" stroke="none"/>
<path d="M396.165 338.158C396.165 337.141 396.989 336.317 398.006 336.317C399.023 336.317 399.847 337.141 399.847 338.158C399.847 339.175 399.023 339.999 398.006 339.999C396.989 339.999 396.165 339.175 396.165 338.158Z" fill="#ffffff" fill-rule="nonzero" opacity="1" stroke="none"/>
<path d="M412.882 348.854C412.882 347.838 413.706 347.013 414.723 347.013C415.739 347.013 416.564 347.838 416.564 348.854C416.564 349.871 415.739 350.695 414.723 350.695C413.706 350.695 412.882 349.871 412.882 348.854Z" fill="#ffffff" fill-rule="nonzero" opacity="1" stroke="none"/>
<path d="M415.629 319.683C415.629 318.666 416.454 317.842 417.47 317.842C418.487 317.842 419.311 318.666 419.311 319.683C419.311 320.699 418.487 321.524 417.47 321.524C416.454 321.524 415.629 320.699 415.629 319.683Z" fill="#ffffff" fill-rule="nonzero" opacity="1" stroke="none"/>
<path d="M171.76 278.383C171.76 277.366 172.584 276.542 173.601 276.542C174.618 276.542 175.442 277.366 175.442 278.383C175.442 279.4 174.618 280.224 173.601 280.224C172.584 280.224 171.76 279.4 171.76 278.383Z" fill="#ffffff" fill-rule="nonzero" opacity="1" stroke="none"/>
<path d="M171.842 320.666C171.842 319.308 172.942 318.208 174.3 318.208C175.658 318.208 176.758 319.308 176.758 320.666C176.758 322.024 175.658 323.124 174.3 323.124C172.942 323.124 171.842 322.024 171.842 320.666Z" fill="#ffffff" fill-rule="nonzero" opacity="1" stroke="none"/>
<path d="M186.592 351.804C186.592 350.447 187.692 349.346 189.05 349.346C190.408 349.346 191.508 350.447 191.508 351.804C191.508 353.162 190.408 354.263 189.05 354.263C187.692 354.263 186.592 353.162 186.592 351.804Z" fill="#ffffff" fill-rule="nonzero" opacity="1" stroke="none"/>
<path d="M363.262 319.355C363.262 317.997 364.363 316.896 365.72 316.896C367.078 316.896 368.179 317.997 368.179 319.355C368.179 320.712 367.078 321.813 365.72 321.813C364.363 321.813 363.262 320.712 363.262 319.355Z" fill="#ffffff" fill-rule="nonzero" opacity="1" stroke="none"/>
<path d="M426.85 315.749C426.85 314.392 427.951 313.291 429.308 313.291C430.666 313.291 431.767 314.392 431.767 315.749C431.767 317.107 430.666 318.208 429.308 318.208C427.951 318.208 426.85 317.107 426.85 315.749Z" fill="#ffffff" fill-rule="nonzero" opacity="1" stroke="none"/>
<path d="M395.384 302.31C395.384 300.953 396.484 299.852 397.842 299.852C399.2 299.852 400.3 300.953 400.3 302.31C400.3 303.668 399.2 304.769 397.842 304.769C396.484 304.769 395.384 303.668 395.384 302.31Z" fill="#ffffff" fill-rule="nonzero" opacity="1" stroke="none"/>
<path d="M363.262 303.622C363.262 302.264 364.363 301.163 365.72 301.163C367.078 301.163 368.179 302.264 368.179 303.622C368.179 304.979 367.078 306.08 365.72 306.08C364.363 306.08 363.262 304.979 363.262 303.622Z" fill="#ffffff" fill-rule="nonzero" opacity="1" stroke="none"/>
<path d="M299.461 52.8086L305.574 52.2241L299.472 51.8799C299.28 50.6999 298.335 49.7767 297.144 49.6237L296.56 43.538L296.21 49.6729C295.107 49.9187 294.26 50.8419 294.123 51.9892L287.874 52.5573L294.167 52.896C294.397 53.9503 295.249 54.7752 296.319 54.9719L296.888 61.2433L297.221 54.9828C298.352 54.7916 299.248 53.923 299.461 52.8086Z" fill="#ffffff" fill-rule="nonzero" opacity="1" stroke="none"/>
<path d="M196.288 120.865L202.401 120.281L196.299 119.937C196.113 118.757 195.163 117.834 193.972 117.681L193.387 111.595L193.043 117.73C191.934 117.976 191.088 118.899 190.951 120.046L184.701 120.614L190.995 120.953C191.224 122.007 192.076 122.832 193.147 123.029L193.715 129.3L194.054 123.04C195.185 122.854 196.081 121.98 196.288 120.865Z" fill="#ffffff" fill-rule="nonzero" opacity="1" stroke="none"/>
<path d="M424.829 300.803L430.942 300.218L424.84 299.874C424.654 298.694 423.704 297.771 422.513 297.618L421.928 291.532L421.584 297.667C420.48 297.913 419.634 298.836 419.497 299.983L413.248 300.551L419.541 300.89C419.77 301.944 420.622 302.769 421.693 302.966L422.261 309.237L422.6 302.977C423.72 302.791 424.616 301.923 424.829 300.803Z" fill="#ffffff" fill-rule="nonzero" opacity="1" stroke="none"/>
<path d="M175.638 394.885L181.751 394.3L175.649 393.956C175.458 392.776 174.513 391.853 173.322 391.7L172.738 385.62L172.393 391.749C171.284 391.995 170.438 392.918 170.301 394.065L164.052 394.634L170.345 394.972C170.574 396.027 171.426 396.857 172.497 397.048L173.065 403.32L173.404 397.059C174.529 396.873 175.431 395.999 175.638 394.885Z" fill="#ffffff" fill-rule="nonzero" opacity="1" stroke="none"/>
<path d="M405.408 348.996L411.521 348.412L405.419 348.068C405.233 346.888 404.283 345.965 403.092 345.812L402.507 339.726L402.163 345.855C401.06 346.101 400.213 347.024 400.076 348.172L393.827 348.74L400.12 349.078C400.35 350.133 401.202 350.958 402.273 351.154L402.841 357.426L403.179 351.165C404.299 350.985 405.201 350.111 405.408 348.996Z" fill="#ffffff" fill-rule="nonzero" opacity="1" stroke="none"/>
<path d="M304.148 178.985C278.652 188.895 253.785 197.74 232.802 204.306C190.164 217.657 73.5039 253.8 3.03238 299.361L8.93232 301.655C51.8708 277.4 79.7808 269.779 106.609 261.339C135.781 252.161 230.087 230.091 272.791 218.072C287.218 214.014 304.115 208.698 322.012 202.23C317.849 196.423 313.457 190.599 308.835 184.787C307.289 182.826 305.721 180.892 304.148 178.985ZM335.297 221.918C329.124 226.087 323.951 229.413 320.329 231.511C299.351 243.639 197.08 313.455 173.814 329.516C150.547 345.577 85.9702 406.543 66.9593 424.243L66.3038 431.448C127.598 376.382 146.827 362.801 171.192 344.266C201.347 321.321 263.728 278.875 284.929 265.272C305.197 252.27 323.476 240.312 339.881 229.37C339.613 228.922 339.345 228.474 339.078 228.02C337.843 225.994 336.581 223.961 335.297 221.918ZM431.111 120.723C401.251 138.227 354.188 159.352 308.529 177.275C309.622 178.614 310.709 179.963 311.79 181.323C316.893 187.748 321.706 194.216 326.234 200.689C362.126 187.469 401.508 169.726 432.756 148.251C417.869 162.356 368.654 199.138 338.646 219.64C340.192 222.159 341.689 224.677 343.137 227.185C388.599 196.762 419.191 174.369 437.017 159.395C461.6 138.746 517.649 92.5294 538.955 30.58C501.583 78.1128 457.399 105.313 431.111 120.723Z" fill="#b600e1" fill-rule="nonzero" opacity="1" stroke="none"/>
<g opacity="1">
<path d="M312.519 203.652L268.085 203.652C266.08 203.652 264.497 204.416 263.334 205.942C262.172 207.469 261.591 209.258 261.591 211.309C261.591 213.314 262.15 215.023 263.266 216.436C264.383 217.848 265.989 218.555 268.085 218.555L294.267 218.555C301.331 218.555 306.914 221.198 311.015 226.484C314.707 231.224 316.552 237.08 316.552 244.053C316.552 250.98 314.707 256.836 311.015 261.621C306.914 266.908 301.331 269.551 294.267 269.551L246.621 269.551L246.621 251.777L291.259 251.777C293.173 251.777 294.677 250.991 295.771 249.419C296.865 247.847 297.412 246.035 297.412 243.984C297.412 241.934 296.888 240.19 295.839 238.755C294.791 237.319 293.264 236.602 291.259 236.602L265.009 236.602C257.9 236.602 252.272 233.981 248.124 228.74C244.388 224.046 242.519 218.236 242.519 211.309C242.519 204.473 244.388 198.685 248.124 193.945C252.317 188.659 257.945 186.016 265.009 186.016L312.519 186.016L312.519 203.652Z" fill="#ffffff" fill-rule="nonzero" opacity="1" stroke="none"/>
<path d="M373.359 203.652L354.492 203.652L354.492 269.551L336.24 269.551L336.24 203.652L317.441 203.652L317.441 186.016L373.359 186.016L373.359 203.652Z" fill="#ffffff" fill-rule="nonzero" opacity="1" stroke="none"/>
</g>
<g opacity="1">
<path d="M143.808 252.734C143.808 258.021 141.621 262.396 137.246 265.859C133.144 269.095 128.245 270.713 122.548 270.713C117.626 270.713 113.206 269.414 109.287 266.816C104.912 263.9 101.813 259.73 99.9897 254.307C99.6251 253.213 97.9617 247.288 94.9995 236.533C92.3107 226.781 89.9637 219.147 87.9585 213.633C85.1785 206.113 82.9227 202.467 81.1909 202.695C80.0516 202.969 79.254 203.436 78.7983 204.097C78.3426 204.757 78.1147 205.68 78.1147 206.865L78.1147 269.551L59.6577 269.551L59.6577 202.559C59.6577 196.452 61.9591 191.803 66.562 188.613C70.5268 185.879 75.6082 184.512 81.8061 184.512C90.1004 184.512 96.6857 188.682 101.562 197.021C104.843 202.581 107.965 211.582 110.927 224.023C114.208 237.695 116.601 246.172 118.105 249.453C118.925 251.23 120.179 252.119 121.865 252.119C122.776 252.119 123.562 251.755 124.223 251.025C124.884 250.296 125.214 249.294 125.214 248.018L125.214 185.4L143.808 185.4L143.808 252.734Z" fill="#ffffff" fill-rule="nonzero" opacity="1" stroke="none"/>
<path d="M450.263 269.551L397.695 248.769L397.695 269.551L379.511 269.551L379.511 241.865C379.511 235.212 381.152 229.834 384.433 225.732C388.261 220.947 393.889 218.555 401.318 218.555L423.945 218.555C426.041 218.555 427.659 217.837 428.798 216.401C429.938 214.966 430.507 213.268 430.507 211.309C430.507 209.212 429.96 207.458 428.867 206.045C427.636 204.45 425.996 203.652 423.945 203.652L379.511 203.652L379.511 186.016L427.021 186.016C434.13 186.016 439.759 188.636 443.906 193.877C447.643 198.616 449.511 204.427 449.511 211.309C449.511 218.144 447.643 223.932 443.906 228.672C439.759 233.958 434.13 236.602 427.021 236.602L415.537 236.602L450.263 249.863L450.263 269.551Z" fill="#ffffff" fill-rule="nonzero" opacity="1" stroke="none"/>
<path d="M208.015 269.551L180.74 269.551C170.942 269.551 163.217 265.29 157.566 256.768C152.462 249.111 149.91 239.678 149.91 228.467C149.91 217.074 152.507 207.366 157.703 199.346C163.445 190.459 171.124 186.016 180.74 186.016L208.015 186.016C217.631 186.016 225.31 190.459 231.052 199.346C236.248 207.366 238.845 217.096 238.845 228.535C238.845 239.746 236.316 249.157 231.257 256.768C225.606 265.29 217.859 269.551 208.015 269.551ZM204.939 251.436C209.314 251.436 212.823 248.883 215.466 243.779C217.882 239.131 219.089 233.525 219.089 226.963C219.089 220.583 217.927 215.228 215.603 210.898C213.005 206.068 209.451 203.652 204.939 203.652L183.816 203.652C179.304 203.652 175.749 206.068 173.152 210.898C170.828 215.228 169.666 220.583 169.666 226.963C169.666 233.571 170.85 239.176 173.22 243.779C175.863 248.883 179.395 251.436 183.816 251.436L204.939 251.436Z" fill="#ffffff" fill-rule="nonzero" opacity="1" stroke="none"/>
</g>
<path d="M223.931 285.807C219.096 279.721 212.409 271.571 207.389 265.25C200.675 256.799 194.464 248.26 188.771 239.733C186.914 240.197 185.062 240.662 183.21 241.126C190.082 251.85 197.714 262.557 206.029 273.024C212.103 280.672 217.626 286.829 220.456 290.658C221.03 291.434 222.166 293.149 223.701 295.433C225.471 294.231 227.257 293.018 229.06 291.794C227.318 289.899 225.597 287.905 223.931 285.807ZM259.221 317.842C255.249 314.083 245.618 307.806 235.594 298.388C233.381 299.907 231.147 301.447 228.907 302.999C235.381 312.122 244.198 323.326 251.103 326.593C261.504 331.521 264.307 322.66 259.221 317.842ZM311.79 181.323C254.474 109.18 184.456 69.5469 154.268 93.5346C130.821 112.163 140.446 166.606 172.765 223.798C174.437 223.224 176.092 222.661 177.731 222.104C145.112 166.382 136.185 114.6 158.299 97.0254C186.089 74.9443 253.19 114.731 308.846 184.782C320.367 199.28 330.495 213.833 339.072 228.02C371.915 282.376 381.994 331.532 359.301 351.597C352.358 357.737 331.14 360.146 303.345 347.636C302.957 348.122 303.58 349.439 304.066 349.761C328.059 359.409 351.041 363.085 362.645 353.869C390.527 331.712 369.107 253.467 311.79 181.323Z" fill="#ffffff" fill-rule="nonzero" opacity="1" stroke="none"/>
<path d="M335.297 221.918C329.124 226.087 323.951 229.413 320.329 231.511C299.351 243.639 197.08 313.455 173.814 329.516C150.547 345.577 85.9702 406.543 66.9593 424.243L66.3038 431.448C127.598 376.382 146.827 362.801 171.192 344.266C201.347 321.321 263.728 278.875 284.929 265.272C305.197 252.27 323.476 240.312 339.881 229.37C339.613 228.922 339.345 228.474 339.078 228.02C337.843 225.994 336.581 223.961 335.297 221.918ZM432.756 148.251C417.869 162.356 368.654 199.138 338.646 219.64C340.192 222.159 341.689 224.677 343.137 227.185C388.599 196.762 419.191 174.369 437.017 159.395C461.6 138.746 517.649 92.5294 538.955 30.58C501.583 78.1128 475.829 120.089 432.756 148.251Z" fill="#b600e1" fill-rule="nonzero" opacity="1" stroke="none"/>
<g opacity="0">
<path d="M279.726 347.631C280.285 348.469 282.13 349.344 282.937 350.119C286.169 353.227 287.512 356.16 287.512 360.635C287.512 363.259 285.285 365.793 283.177 367.298C279.524 369.907 275.265 371.764 270.976 372.837C269.525 373.199 268.102 373.775 266.641 374.041C266.347 374.094 265.997 374.022 265.758 374.201C265.437 374.442 264.784 374.251 264.554 374.281C262.601 374.542 260.359 375.051 258.293 374.362C258.367 374.287 258.587 374.046 258.694 374.041C259.629 373.991 260.568 374.091 261.503 374.041C262.807 373.97 264.47 373.672 265.838 373.398C271.578 372.251 276.643 369.642 281.813 367.057C283.761 366.083 285.692 364.33 286.388 362.24C288.087 357.145 284.704 353.091 281.331 349.718C280.792 349.179 279.628 347.935 278.843 347.711C274.79 346.553 271.026 345.265 266.802 344.42C264.819 344.023 262.988 344.054 260.861 344.018C257.884 343.969 254.983 344.101 252.111 344.42C251.169 344.524 250.06 345.039 249.141 345.222C244.738 346.103 240.691 347.972 236.619 349.718C234.026 350.829 231.202 352.704 228.752 354.454C228.256 354.808 227.745 355.401 227.146 355.658C226.573 355.904 225.163 354.712 224.578 354.614C222.311 354.237 220.044 352.676 217.674 352.367C210.892 351.482 205.332 352.698 200.335 356.862C200.641 357.474 200.687 359.018 200.977 359.672C201.494 360.835 203.842 359.641 202.984 361.357C204.078 362.452 207.638 362.247 209.085 362.642C210.357 362.989 211.758 362.734 213.098 363.043C215.859 363.68 219.541 363.977 222.009 365.211C222.425 365.419 222.774 366.346 223.052 366.655C223.508 367.162 224.004 367.631 224.497 368.1C225.138 368.711 226.176 369.21 226.584 370.027C227.305 371.469 227.748 373.277 228.591 374.683C231.102 378.867 238.726 382.068 243.362 382.068C244.013 382.068 245.408 380.539 245.85 380.141C247.642 378.529 249.095 376.801 251.068 375.486C251.148 375.566 251.148 375.566 251.228 375.646C250.45 376.425 249.579 377.135 248.82 377.894C247.256 379.458 245.867 381.929 243.763 382.63C240.741 383.637 237.894 384.41 234.853 385.279C233.589 385.64 231.615 385.56 230.598 386.323C229.751 386.958 228.286 388.989 228.19 390.095C228.149 390.566 228.47 391.984 228.35 392.584C228.237 393.153 227.773 393.947 227.548 394.51C224.402 402.375 220.365 410.08 216.55 417.71C215.863 419.084 213.67 418.465 212.536 419.315C211.047 420.432 208.778 421.605 207.078 422.285C206.253 422.615 205.364 422.683 204.509 422.927C203.584 423.192 202.487 424.144 201.7 424.774C201.134 425.226 200.311 426.323 199.612 426.379C198.999 426.428 198.377 426.309 197.766 426.379C197.333 426.429 197.657 427.242 197.766 427.423C198.512 428.666 200.099 428.466 201.378 428.466C202.714 428.466 203.963 427.417 205.151 427.021C206.84 426.459 208.764 426.689 210.61 426.54C211.398 426.476 212.517 426.021 213.339 425.978C215.364 425.871 216.41 426.359 217.754 425.015C218.565 424.203 218.804 423.114 219.199 422.125C220.142 419.767 221.302 417.51 222.25 415.141C223.626 411.699 225.358 408.334 226.745 404.866C227.296 403.489 228.268 402.224 228.752 400.772C229.22 399.367 230.043 398.146 230.598 396.758C230.844 396.143 231.034 395.237 231.642 394.751C231.848 394.587 232.33 394.659 232.605 394.43C233.381 393.784 233.429 392.941 234.05 392.423C235.653 391.087 237.87 390.401 239.749 389.774C240.411 389.554 240.988 389.109 241.676 388.972C242.41 388.825 243.08 388.156 243.763 387.928C245.26 387.429 246.662 386.679 248.339 386.563C250.59 386.408 252.432 386.821 254.76 386.724C255.168 386.707 255.778 386.399 256.366 386.483C256.736 386.536 256.694 387.43 256.848 387.687C257.535 388.833 257.621 390.409 258.052 391.701C258.561 393.227 259.055 395.151 259.256 396.758C259.393 397.853 259.344 399.502 259.818 400.451C259.842 400.499 259.817 400.558 259.818 400.611C259.844 402.137 259.821 403.663 259.898 405.187C259.945 406.109 261.333 407.304 262.146 407.756C264.84 409.252 269.188 408.317 272.18 408.398C273.017 408.42 274.111 408.782 274.909 408.96C277.403 409.514 279.792 409.895 282.294 410.646C283.86 411.115 285.342 411.849 286.95 412.251C288.25 412.576 290.624 413.719 291.125 415.221C291.243 415.577 291.319 416.056 291.526 416.345C291.698 416.585 292.043 416.776 292.168 417.067C292.654 418.201 292.163 419.231 293.292 420.038C294.218 420.699 297.707 421.015 297.707 419.556C297.707 419.445 295.476 417.869 295.299 417.71C295.379 417.629 295.379 417.629 295.459 417.549C296.038 417.838 296.596 417.956 297.145 418.191C298.678 418.848 300.007 420.918 301.64 421.081C302.299 421.147 302.773 421.337 303.487 421.242C303.845 421.194 304.443 420.505 304.851 420.68C305.962 421.156 304.748 422.599 307.099 422.285C307.174 422.275 307.243 422.199 307.26 422.125C307.565 420.749 305.885 418.754 304.851 418.031C303.267 416.921 301.353 416.218 299.955 414.82C299.459 414.324 299.459 413.452 298.831 412.893C297.968 412.126 297.208 412.504 296.262 411.368C295.526 410.485 293.265 406.894 292.329 406.792C290.338 406.576 288.519 406.779 286.549 406.552C281.922 406.018 277.1 404.907 272.581 403.903C271.567 403.677 270.089 403.649 269.21 403.1C268.543 402.683 268.432 401.895 267.765 401.494C267.157 401.13 265.964 401.242 265.597 400.692C263.897 398.141 264.176 394.465 263.912 391.38C263.718 389.116 263.359 386.702 263.51 384.235C263.52 384.082 266.11 382.804 266.4 382.63C267.862 381.753 269.329 380.416 270.253 378.937C270.634 378.328 271.038 377.43 271.538 376.931C272.139 377.532 269.749 380.505 269.29 381.024C268.989 381.366 268.216 382.085 268.648 382.229C268.857 382.298 269.474 382.072 269.691 382.068C271.816 382.029 273.329 381.789 275.23 381.667C280.547 381.324 284.771 380.457 288.235 376.128C288.981 375.194 289.809 374.345 290.322 373.318C291.338 371.287 291.86 368.957 292.891 366.896C293.453 365.771 292.998 364.381 292.971 363.123C292.963 362.738 292.508 362.118 292.329 361.759C291.573 360.247 290.081 357.228 290.081 355.497C290.081 355.016 290.405 354.434 290.482 353.972C290.806 352.032 293.355 349.704 294.175 347.791C294.936 346.014 295.817 344.09 296.824 342.413C297.294 341.629 297.962 340.765 298.269 339.844C298.669 338.644 299.371 337.433 299.714 336.232C300.468 333.591 300.84 330.526 300.757 327.642C300.467 317.477 293.589 310.338 290.964 301.152C290.643 300.027 290.77 298.429 290.884 297.459C291.161 295.1 291.917 293.95 294.095 292.643C294.502 292.399 294.903 291.976 295.379 291.84C296.168 291.615 296.848 291.349 297.627 291.038C298.296 290.77 300.896 290.848 301.56 290.797C302.187 290.749 301.938 289.46 301.56 289.272C300.163 288.573 298.235 289.03 296.824 288.389C296.436 288.212 296.227 287.578 296.021 287.345C295.646 286.919 295.243 286.516 294.817 286.141C292.855 284.41 288.342 284.534 286.87 287.184C285.215 290.164 285.879 294.464 286.228 297.781C286.52 300.555 287.026 303.062 287.673 305.647C287.938 306.71 288.663 307.708 288.877 308.778C289.251 310.648 291.371 312.697 292.168 314.558C294.205 319.31 295.994 323.541 295.218 329.489C294.459 335.315 289.856 340.661 285.024 344.42C284.134 345.111 282.983 346.09 281.973 346.426C281.283 346.657 280.276 347.081 279.726 347.631Z" fill="#b600e1" fill-rule="nonzero" opacity="1" stroke="none"/>
<path d="M275.565 348.229C275.069 348.725 275.315 348.517 274.843 348.871C276.332 350.361 278.074 351.621 279.579 353.126C280.215 353.762 280.525 354.589 281.024 355.213C281.644 355.989 281.812 356.889 282.067 357.782C283.119 361.462 282.436 364.146 279.739 366.692C278.129 368.213 275.653 369.21 273.719 369.983C269.318 371.744 265.11 373.828 260.233 374.479C258.376 374.726 256.379 374.929 254.533 375.041C253.65 375.094 252.51 374.576 251.884 375.201C252.208 375.687 253.957 375.603 254.373 375.603C256.385 375.603 258.45 376.133 260.393 375.603C264.741 374.417 269.168 373.441 273.398 371.749C274.873 371.159 276.05 370.223 277.492 369.502C278.854 368.821 281.645 366.735 282.228 365.568C282.787 364.449 283.325 363.482 283.592 362.277C284.609 357.704 281.802 353.744 278.776 350.718C277.826 349.768 276.417 349.294 275.565 348.229Z" fill="#b600e1" fill-rule="nonzero" opacity="1" stroke="none"/>
<path d="M245.302 377.69C245.543 377.931 245.543 377.931 245.784 378.171C246.367 377.588 246.912 377.076 247.55 376.566C247.035 376.051 245.668 377.14 245.302 377.69Z" fill="#b600e1" fill-rule="nonzero" opacity="1" stroke="none"/>
</g>
</g>
<g opacity="1">
<path d="M212.669 349.351C212.536 349.485 212.536 349.485 212.402 349.618C205.033 345.933 196.291 349.406 192.648 356.692C191.839 358.311 190.708 359.989 190.913 362.031C191.146 364.36 196.643 359.309 196.919 360.963C197.104 362.075 195.827 363.688 195.718 364.834C195.392 368.257 196.4 370.038 199.322 366.97C199.734 366.536 200.1 366.058 200.523 365.635C201.16 364.998 202.041 364.543 202.792 364.167C203.746 365.121 200.082 369.261 202.925 370.841C203.721 371.283 205.663 369.465 206.262 369.105C209.015 367.454 211.951 367.06 215.072 366.436C215.462 366.358 215.649 365.928 216.006 365.902C218.641 365.714 219.828 367.346 222.012 368.438C225.239 370.051 228.785 371.299 232.29 372.175C233.57 372.496 236.468 372.616 237.362 373.51C235.235 377.764 230.461 381.448 226.551 384.055C225.747 384.59 224.727 384.615 223.881 385.123C220.915 386.902 221.309 388.3 220.411 390.995C219.895 392.541 217.905 394.45 216.94 395.801C214.139 399.723 211.468 403.756 208.665 407.68C207.909 408.738 207.182 409.963 206.262 410.883C205.604 411.541 204.152 411.448 203.326 411.684C201.704 412.148 200.413 413.128 199.188 414.354C198.357 415.185 197.983 417.11 199.055 417.824C199.405 418.057 200.29 417.39 200.79 417.557C199.422 419.609 195.525 427.236 199.322 428.502C199.416 428.533 199.503 428.42 199.589 428.368C201.035 427.501 201.766 424.267 202.925 422.896C204.2 421.39 206.847 418.768 207.731 417.824C210.013 415.384 211.579 411.714 213.603 409.015C217.318 404.062 220.835 398.313 225.216 393.932C225.686 393.462 226.638 393.566 227.218 393.131C228.066 392.495 228.859 391.757 229.621 390.995C230.402 390.214 230.062 388.997 230.688 388.192C232.33 386.082 235.495 384.454 237.629 382.853C238.92 381.885 240.405 380.248 241.9 379.65C243.751 378.91 245.815 378.56 247.64 377.648C247.773 377.781 247.773 377.781 247.907 377.915C246.905 379.418 246.303 381.056 245.638 382.72C244.477 385.621 243.09 388.57 245.904 391.129C246.017 391.231 246.555 391.519 246.705 391.529C249.335 391.717 249.596 390.073 251.777 389.527C257.062 388.206 262.257 386.228 267.527 384.722C269.285 384.22 271.125 383.387 273 383.387C273.17 383.387 273.461 383.69 273.534 383.788C273.843 384.2 273.743 385.713 273.801 386.057C273.963 387.031 275.038 387.816 275.803 388.326C276.118 388.011 276.774 388.073 277.004 387.659C277.508 386.751 276.24 385.887 277.138 384.989C278.429 385.85 279.226 387.355 280.475 388.326C281.278 388.951 283.682 390.486 284.345 388.993C284.735 388.118 283.303 386.562 282.877 385.923C281.374 383.669 279.309 378.677 276.737 377.648C274.293 376.67 271.489 377.662 269.129 378.449C263.444 380.344 256.872 381.374 251.51 384.055C251.377 383.921 251.377 383.921 251.243 383.788C251.844 382.587 252.696 381.134 253.646 380.184C254.807 379.023 256.611 378.7 257.784 377.381C258.158 376.96 258.125 375.652 258.985 375.512C261.74 375.066 264.97 375.598 267.794 375.245C271.693 374.758 276.232 373.414 279.54 370.841C282.658 368.416 284.985 365.205 285.146 361.097C285.225 359.096 285.195 357.091 285.28 355.091C285.284 354.991 285.348 354.899 285.413 354.824C286.634 353.399 288.879 352.45 290.485 351.487C292.854 350.065 294.966 348.074 296.892 346.148C299.02 344.02 299.527 340.843 301.43 338.94C301.048 338.177 302.315 335.566 302.364 334.535C302.511 331.455 302.723 327.049 300.629 324.258C299.46 322.699 298.306 321.267 296.892 319.853C294.52 317.481 289.187 315.693 289.684 311.711C289.759 311.113 292.969 310.415 293.555 310.376C296.398 310.187 299.262 310.38 302.098 310.109C302.408 310.08 302.628 309.569 302.498 309.309C302.049 308.411 300.237 308.917 299.562 308.241C299.929 307.873 302.934 308.347 302.498 307.04C302.4 306.747 295.932 304.806 295.023 304.503C293.427 303.971 292.221 302.208 290.619 301.567C286.579 299.951 283.327 302.172 282.343 306.105C280.794 312.303 283.68 316.518 287.816 320.654C290.052 322.89 293.36 324.288 295.023 327.061C298.116 332.216 295.605 338.841 290.352 340.942C288.237 341.788 285.884 341.321 283.678 341.076C281.709 340.857 280.398 341.61 278.472 341.61C277.041 341.61 274.623 339.273 273.4 338.54C270.813 336.987 267.988 335.772 264.858 335.203C253.317 333.105 243.949 336.648 234.025 341.61C229.719 343.763 225.53 345.999 220.544 346.148C217.787 346.23 215.025 346.152 212.269 346.281C210.342 346.372 212.368 348.9 212.669 349.351Z" fill="#b600e1" fill-rule="nonzero" opacity="1" stroke="none"/>
</g>
<g opacity="0">
<path d="M222.485 334.217C223.625 334.264 224.613 335.001 225.306 336.129C225.81 335.592 226.494 335.228 227.4 335.1C227.463 335.092 227.597 335.089 227.706 335.088C225.843 333.047 223.17 331.76 220.191 331.76C219.645 331.76 219.114 331.816 218.592 331.898C218.484 331.904 218.347 331.923 218.168 331.963C218.153 331.966 218.138 331.968 218.123 331.972C218.108 331.975 218.101 331.975 218.085 331.979C216.027 332.483 214.481 332.073 213.601 330.88C213.509 330.754 213.131 330.188 213.014 329.201C212.366 329.871 211.943 330.978 212.307 332.147C212.597 333.077 213.129 333.584 213.715 333.871C212.824 333.925 212.082 333.758 211.339 333.197C210.901 332.864 210.632 332.505 210.176 331.561C209.734 332.205 209.773 332.945 209.855 333.334C209.964 333.84 210.23 334.414 210.567 334.741C211.091 335.254 211.832 335.361 212.429 335.358C211.555 336.385 210.879 337.585 210.466 338.904C212.821 338.373 215.953 338.243 217.727 338.105C218.282 335.839 219.85 334.106 222.485 334.217Z" fill="#b600e1" fill-rule="nonzero" opacity="1" stroke="none"/>
<path d="M225.868 339.894C225.868 338.104 226.702 336.653 227.731 336.653C228.76 336.653 229.594 338.104 229.594 339.894C229.594 341.684 228.76 343.135 227.731 343.135C226.702 343.135 225.868 341.684 225.868 339.894Z" fill="#b600e1" fill-rule="nonzero" opacity="1" stroke="none"/>
<path d="M220.093 340.049C220.093 337.791 221.164 335.961 222.486 335.961C223.807 335.961 224.878 337.791 224.878 340.049C224.878 342.307 223.807 344.137 222.486 344.137C221.164 344.137 220.093 342.307 220.093 340.049Z" fill="#b600e1" fill-rule="nonzero" opacity="1" stroke="none"/>
<path d="M341.95 380.229L341.95 371.174L335.624 371.174L326.371 371.174L325.891 371.174L325.787 371.174L315.183 371.174L315.183 357.544L299.022 362.411L299.022 371.174L291.72 371.174L291.72 376.054C287.811 371.908 282.323 369.812 275.166 369.812C269.811 369.812 265.139 371.272 261.341 374.096C258.067 376.531 256.177 379.91 255.716 384.102C254.485 381.65 252.84 379.382 250.727 377.31C245.762 372.344 239.628 369.813 232.325 369.813C230.265 369.813 228.302 370.044 226.417 370.456C222.066 371.406 218.183 373.451 214.766 376.555C215.193 375.841 215.643 375.135 216.142 374.442C216.878 373.417 217.666 372.467 218.49 371.574L218.49 364.967C218.49 364.967 218.295 359.963 220.189 356.226C220.853 354.915 222.372 353.116 223.505 352.135C224.114 351.606 224.714 351.156 225.308 350.744C225.61 350.568 225.901 350.377 226.182 350.171C231.196 347.093 235.622 347.777 239.279 348.307C239.279 348.307 240.153 345.716 236.566 344.384C234.618 343.66 232.31 343.085 230.392 342.676C230.117 343.177 229.767 343.597 229.348 343.92C229.055 344.146 228.315 344.715 226.969 344.555C226.294 344.474 225.773 344.197 225.36 343.796C224.664 344.95 223.654 345.709 222.481 345.808C219.241 346.083 217.612 343.372 217.505 340.364C215.08 340.602 211.767 342.093 210.001 342.964L210.001 382.207C208.446 384.705 207.359 387.408 206.8 390.348C206.656 377.072 199.312 369.811 188.902 369.811C182.769 369.811 178.29 371.855 175.369 376.042L175.369 371.174L159.206 371.174L159.206 419.855L175.368 419.855L175.368 393.958C175.368 388.212 178.289 385.097 183.352 385.097C187.733 385.097 190.654 387.727 190.654 392.789L190.654 419.855L206.816 419.855L206.816 400.763C207.771 405.741 210.139 410.108 213.925 413.819C218.987 418.786 225.121 421.22 232.326 421.22C239.628 421.22 245.763 418.786 250.728 413.819C251.832 412.737 252.792 411.59 253.654 410.399C257.377 417.576 264.538 421.219 275.069 421.219C280.814 421.219 285.682 419.855 289.869 417.227C294.055 414.597 296.1 410.412 296.1 404.863C296.198 394.054 287.337 390.55 280.425 389.283C275.752 388.211 271.955 387.238 271.955 385.389C271.955 383.831 273.124 383.052 275.557 383.052C278.188 383.052 280.134 384.415 281.593 387.238L291.721 382.682L291.721 386.654L299.023 386.654L299.023 401.161C299.023 408.853 300.969 414.208 304.865 417.227C308.857 420.147 316.734 421.024 326.372 419.855L341.951 419.855L341.951 399.702C341.951 395.32 343.412 392.108 346.429 390.16C349.449 388.212 352.856 387.531 356.555 388.115L356.555 370.201C349.837 370.201 343.799 373.901 341.95 380.229ZM232.326 405.64C226.776 405.64 222.59 401.454 222.59 395.514C222.59 389.575 226.776 385.389 232.326 385.389C238.071 385.389 242.161 389.575 242.161 395.514C242.161 401.454 238.072 405.64 232.326 405.64ZM279.354 405.251C279.354 407.003 277.894 407.88 274.972 407.88C271.176 407.88 268.643 406.128 267.378 402.525L254.62 408.95C257.07 405.007 258.323 400.527 258.323 395.515C258.323 395.163 258.289 394.826 258.276 394.478C261.373 398.433 266.604 400.308 270.981 401.259C275.654 402.428 279.354 403.402 279.354 405.251ZM325.788 390.551L325.788 405.278C318.869 405.603 315.184 404.94 315.184 400.772L315.184 386.655L321.75 386.655L325.788 371.563L325.788 390.551Z" fill="#b600e1" fill-rule="nonzero" opacity="1" stroke="none"/>
</g>
</g>
</svg>
